{
  "source": "C:\\Users\\Peter\\Desktop\\stuff\\MIUN\\quantitative_research\\video_compression\\videos\\BVI-HD\\BVI-HD_CDVL_videos\\ORIG\\Hamster_1920x1080_60fps.mp4",
  "output": "C:\\Users\\Peter\\Desktop\\stuff\\MIUN\\quantitative_research\\video_compression\\compressed_videos\\BVI-HD\\av1\\1.5\\Hamster_1920x1080_60fps_av1.mkv",
  "codec": "av1",
  "ok": "Input #0, mov,mp4,m4a,3gp,3g2,mj2, from 'C:\\Users\\Peter\\Desktop\\stuff\\MIUN\\quantitative_research\\video_compression\\videos\\BVI-HD\\BVI-HD_CDVL_videos\\ORIG\\Hamster_1920x1080_60fps.mp4':\n  Metadata:\n    major_brand     : isom\n    minor_version   : 512\n    compatible_brands: isomiso2avc1mp41\n    encoder         : Lavf54.28.101\n  Duration: 00:00:05.00, start: 0.000000, bitrate: 208485 kb/s\n  Stream #0:0[0x1](und): Video: h264 (High 4:4:4 Predictive) (avc1 / 0x31637661), yuv420p(progressive), 1920x1080, 208481 kb/s, 60 fps, 60 tbr, 60 tbn (default)\n    Metadata:\n      handler_name    : VideoHandler\n      vendor_id       : [0][0][0][0]\n[out#0/matroska @ 00000122fff09780] Codec AVOption b:a (set bitrate (in bits/s)) has not been used for any stream. The most likely reason is either wrong type (e.g. a video option with no video streams) or that it is a private option of some decoder which was not actually used for any stream.\nStream mapping:\n  Stream #0:0 -> #0:0 (h264 (native) -> av1 (libsvtav1))\nPress [q] to stop, [?] for help\nSvt[info]: -------------------------------------------\nSvt[info]: SVT [version]:\tSVT-AV1 Encoder Lib v3.1.0-19-g6ecfe8ec\nSvt[info]: SVT [build]  :\tGCC 15.2.0\t 64 bit\nSvt[info]: LIB Build date: Aug 17 2025 11:37:13\nSvt[info]: -------------------------------------------\nSvt[info]: Level of Parallelism: 5\nSvt[info]: Number of PPCS 93\nSvt[info]: [asm level on system : up to avx2]\nSvt[info]: [asm level selected : up to avx2]\nSvt[info]: -------------------------------------------\nSvt[info]: SVT [config]: main profile\ttier (auto)\tlevel (auto)\nSvt[info]: SVT [config]: width / height / fps numerator / fps denominator \t\t: 1920 / 1080 / 60 / 1\nSvt[info]: SVT [config]: bit-depth / color format \t\t\t\t\t: 8 / YUV420\nSvt[info]: SVT [config]: preset / tune / pred struct \t\t\t\t\t: 4 / PSNR / random access\nSvt[info]: SVT [config]: gop size / mini-gop size / key-frame type \t\t\t: 321 / 16 / key frame\nSvt[info]: SVT [config]: BRC mode / target bitrate (kbps)\t\t\t\t: VBR / 1500 \nSvt[info]: SVT [config]: AQ mode / Variance Boost \t\t\t\t\t: 2 / 0\nSvt[info]: SVT [config]: sharpness / luminance-based QP bias \t\t\t\t: 0 / 0\nSvt[info]: SVT [config]: QP scale compress strength \t\t\t\t\t: 0\nSvt[info]: -------------------------------------------\nOutput #0, matroska, to 'C:\\Users\\Peter\\Desktop\\stuff\\MIUN\\quantitative_research\\video_compression\\compressed_videos\\BVI-HD\\av1\\1.5\\Hamster_1920x1080_60fps_av1.mkv':\n  Metadata:\n    major_brand     : isom\n    minor_version   : 512\n    compatible_brands: isomiso2avc1mp41\n    encoder         : Lavf62.3.100\n  Stream #0:0(und): Video: av1 (AV01 / 0x31305641), yuv420p(tv, progressive), 1920x1080, q=2-31, 1500 kb/s, 60 fps, 1k tbn (default)\n    Metadata:\n      encoder         : Lavc62.11.100 libsvtav1\n      handler_name    : VideoHandler\n      vendor_id       : [0][0][0][0]\n    Side data:\n      cpb: bitrate max/min/avg: 0/0/1500000 buffer size: 1500000 vbv_delay: N/A\nframe=    0 fps=0.0 q=0.0 size=       0KiB time=N/A bitrate=N/A speed=N/A elapsed=0:00:01.93    \nframe=    0 fps=0.0 q=0.0 size=       0KiB time=N/A bitrate=N/A speed=N/A elapsed=0:00:02.59    \nframe=    0 fps=0.0 q=0.0 size=       0KiB time=N/A bitrate=N/A speed=N/A elapsed=0:00:03.33    \nframe=    0 fps=0.0 q=0.0 size=       0KiB time=N/A bitrate=N/A speed=N/A elapsed=0:00:03.93    \nframe=    0 fps=0.0 q=0.0 size=       0KiB time=N/A bitrate=N/A speed=N/A elapsed=0:00:04.47    \nframe=    0 fps=0.0 q=0.0 size=       0KiB time=N/A bitrate=N/A speed=N/A elapsed=0:00:04.98    \nframe=    0 fps=0.0 q=0.0 size=       0KiB time=N/A bitrate=N/A speed=N/A elapsed=0:00:05.65    \nframe=    0 fps=0.0 q=0.0 size=       0KiB time=N/A bitrate=N/A speed=N/A elapsed=0:00:06.25    \nframe=    0 fps=0.0 q=0.0 size=       0KiB time=N/A bitrate=N/A speed=N/A elapsed=0:00:06.81    \nframe=    0 fps=0.0 q=0.0 size=       0KiB time=N/A bitrate=N/A speed=N/A elapsed=0:00:07.64    \nframe=    0 fps=0.0 q=0.0 size=       0KiB time=N/A bitrate=N/A speed=N/A elapsed=0:00:08.40    \nframe=    0 fps=0.0 q=0.0 size=       0KiB time=N/A bitrate=N/A speed=N/A elapsed=0:00:09.41    \nframe=    0 fps=0.0 q=0.0 size=       0KiB time=N/A bitrate=N/A speed=N/A elapsed=0:00:10.25    \nframe=    0 fps=0.0 q=0.0 size=       0KiB time=N/A bitrate=N/A speed=N/A elapsed=0:00:10.96    \nframe=    0 fps=0.0 q=0.0 size=       0KiB time=N/A bitrate=N/A speed=N/A elapsed=0:00:11.64    \nframe=    0 fps=0.0 q=0.0 size=       0KiB time=N/A bitrate=N/A speed=N/A elapsed=0:00:12.30    \nframe=    0 fps=0.0 q=0.0 size=       0KiB time=N/A bitrate=N/A speed=N/A elapsed=0:00:13.10    \nframe=    0 fps=0.0 q=0.0 size=       0KiB time=N/A bitrate=N/A speed=N/A elapsed=0:00:13.61    \nframe=    1 fps=0.1 q=15.0 size=       1KiB time=00:00:00.00 bitrate=N/A speed=   0x elapsed=0:00:14.14    \nframe=    1 fps=0.1 q=15.0 size=       1KiB time=00:00:00.00 bitrate=N/A speed=   0x elapsed=0:00:14.66    \nframe=    1 fps=0.1 q=15.0 size=       1KiB time=00:00:00.00 bitrate=N/A speed=   0x elapsed=0:00:15.17    \nframe=    1 fps=0.1 q=15.0 size=       1KiB time=00:00:00.00 bitrate=N/A speed=   0x elapsed=0:00:15.69    \nframe=    1 fps=0.1 q=15.0 size=       1KiB time=00:00:00.00 bitrate=N/A speed=   0x elapsed=0:00:16.21    \nframe=    4 fps=0.2 q=46.0 size=       1KiB time=00:00:00.05 bitrate= 113.9kbits/s speed=0.00299x elapsed=0:00:16.72    \nframe=    6 fps=0.3 q=46.0 size=       1KiB time=00:00:00.08 bitrate=  68.4kbits/s speed=0.00483x elapsed=0:00:17.24    \nframe=    7 fps=0.4 q=43.0 size=       1KiB time=00:00:00.10 bitrate=  57.0kbits/s speed=0.00563x elapsed=0:00:17.75    \nframe=    8 fps=0.4 q=46.0 size=       1KiB time=00:00:00.11 bitrate=  48.8kbits/s speed=0.00639x elapsed=0:00:18.26    \nframe=    8 fps=0.4 q=46.0 size=       1KiB time=00:00:00.11 bitrate=  48.8kbits/s speed=0.00621x elapsed=0:00:18.77    \nframe=    9 fps=0.5 q=39.0 size=       1KiB time=00:00:00.13 bitrate=  42.7kbits/s speed=0.00691x elapsed=0:00:19.29    \nframe=   10 fps=0.5 q=47.0 size=       1KiB time=00:00:00.15 bitrate=  38.0kbits/s speed=0.00757x elapsed=0:00:19.81    \nframe=   13 fps=0.6 q=40.0 size=       1KiB time=00:00:00.20 bitrate=  28.5kbits/s speed=0.00984x elapsed=0:00:20.33    \nframe=   14 fps=0.7 q=47.0 size=       1KiB time=00:00:00.21 bitrate=  26.3kbits/s speed=0.0104x elapsed=0:00:20.83    \nframe=   16 fps=0.7 q=47.0 size=       1KiB time=00:00:00.25 bitrate=  22.8kbits/s speed=0.0117x elapsed=0:00:21.35    \nframe=   17 fps=0.8 q=32.0 size=       1KiB time=00:00:00.26 bitrate=  21.4kbits/s speed=0.0122x elapsed=0:00:21.87    \nframe=   19 fps=0.8 q=43.0 size=       1KiB time=00:00:00.30 bitrate=  19.0kbits/s speed=0.0134x elapsed=0:00:22.39    \nframe=   20 fps=0.9 q=44.0 size=       1KiB time=00:00:00.31 bitrate=  18.0kbits/s speed=0.0138x elapsed=0:00:22.91    \nframe=   21 fps=0.9 q=40.0 size=       1KiB time=00:00:00.33 bitrate=  17.1kbits/s speed=0.0142x elapsed=0:00:23.41    \nframe=   22 fps=0.9 q=43.0 size=       1KiB time=00:00:00.35 bitrate=  16.3kbits/s speed=0.0146x elapsed=0:00:23.93    \nframe=   24 fps=1.0 q=43.0 size=       1KiB time=00:00:00.38 bitrate=  14.9kbits/s speed=0.0157x elapsed=0:00:24.45    \nframe=   24 fps=1.0 q=43.0 size=       1KiB time=00:00:00.38 bitrate=  14.9kbits/s speed=0.0154x elapsed=0:00:24.96    \nframe=   27 fps=1.1 q=43.0 size=       1KiB time=00:00:00.43 bitrate=  13.1kbits/s speed=0.017x elapsed=0:00:25.48    \nframe=   27 fps=1.0 q=43.0 size=       1KiB time=00:00:00.43 bitrate=  13.1kbits/s speed=0.0167x elapsed=0:00:25.99    \nframe=   29 fps=1.1 q=40.0 size=       1KiB time=00:00:00.46 bitrate=  12.2kbits/s speed=0.0176x elapsed=0:00:26.50    \nframe=   32 fps=1.2 q=44.0 size=       1KiB time=00:00:00.51 bitrate=  11.0kbits/s speed=0.0191x elapsed=0:00:27.03    \nframe=   34 fps=1.2 q=46.0 size=       1KiB time=00:00:00.55 bitrate=  10.4kbits/s speed=0.02x elapsed=0:00:27.55    \nframe=   35 fps=1.2 q=44.0 size=       1KiB time=00:00:00.56 bitrate=  10.1kbits/s speed=0.0202x elapsed=0:00:28.06    \nframe=   36 fps=1.3 q=46.0 size=       1KiB time=00:00:00.58 bitrate=   9.8kbits/s speed=0.0204x elapsed=0:00:28.57    \nframe=   38 fps=1.3 q=45.0 size=       1KiB time=00:00:00.61 bitrate=   9.2kbits/s speed=0.0212x elapsed=0:00:29.09    \nframe=   39 fps=1.3 q=44.0 size=       1KiB time=00:00:00.63 bitrate=   9.0kbits/s speed=0.0214x elapsed=0:00:29.60    \nframe=   40 fps=1.3 q=45.0 size=       1KiB time=00:00:00.65 bitrate=   8.8kbits/s speed=0.0216x elapsed=0:00:30.12    \nframe=   42 fps=1.4 q=43.0 size=       1KiB time=00:00:00.68 bitrate=   8.3kbits/s speed=0.0223x elapsed=0:00:30.63    \nframe=   45 fps=1.4 q=41.0 size=       1KiB time=00:00:00.73 bitrate=   7.8kbits/s speed=0.0235x elapsed=0:00:31.18    \nframe=   47 fps=1.5 q=45.0 size=       1KiB time=00:00:00.76 bitrate=   7.4kbits/s speed=0.0241x elapsed=0:00:31.78    \nframe=   49 fps=1.5 q=28.0 size=       1KiB time=00:00:00.80 bitrate=   7.1kbits/s speed=0.0248x elapsed=0:00:32.30    \nframe=   51 fps=1.6 q=45.0 size=       1KiB time=00:00:00.83 bitrate=   6.8kbits/s speed=0.0254x elapsed=0:00:32.85    \nframe=   53 fps=1.6 q=42.0 size=       1KiB time=00:00:00.86 bitrate=   6.6kbits/s speed=0.026x elapsed=0:00:33.37    \nframe=   54 fps=1.6 q=45.0 size=       1KiB time=00:00:00.88 bitrate=   6.4kbits/s speed=0.0261x elapsed=0:00:33.88    \nframe=   56 fps=1.6 q=45.0 size=       1KiB time=00:00:00.91 bitrate=   6.2kbits/s speed=0.0266x elapsed=0:00:34.40    \nframe=   59 fps=1.7 q=45.0 size=       1KiB time=00:00:00.96 bitrate=   5.9kbits/s speed=0.0277x elapsed=0:00:34.94    \nframe=   60 fps=1.7 q=44.0 size=       1KiB time=00:00:00.98 bitrate=   5.8kbits/s speed=0.0277x elapsed=0:00:35.52    \nframe=   63 fps=1.7 q=45.0 size=       1KiB time=00:00:01.03 bitrate=   5.5kbits/s speed=0.0287x elapsed=0:00:36.04    \nframe=   65 fps=1.8 q=26.0 size=       1KiB time=00:00:01.06 bitrate=   5.3kbits/s speed=0.0292x elapsed=0:00:36.57    \nframe=   67 fps=1.8 q=45.0 size=       1KiB time=00:00:01.10 bitrate=   5.2kbits/s speed=0.0296x elapsed=0:00:37.10    \nframe=   68 fps=1.8 q=42.0 size=       1KiB time=00:00:01.11 bitrate=   5.1kbits/s speed=0.0297x elapsed=0:00:37.64    \nframe=   70 fps=1.8 q=45.0 size=       1KiB time=00:00:01.15 bitrate=   5.0kbits/s speed=0.0301x elapsed=0:00:38.16    \nframe=   71 fps=1.8 q=43.0 size=       1KiB time=00:00:01.16 bitrate=   4.9kbits/s speed=0.0302x elapsed=0:00:38.67    \nframe=   73 fps=1.9 q=41.0 size=       1KiB time=00:00:01.20 bitrate=   4.7kbits/s speed=0.0306x elapsed=0:00:39.20    \nframe=   75 fps=1.9 q=45.0 size=       1KiB time=00:00:01.23 bitrate=   4.6kbits/s speed=0.031x elapsed=0:00:39.76    \nframe=   76 fps=1.9 q=46.0 size=       1KiB time=00:00:01.25 bitrate=   4.6kbits/s speed=0.031x elapsed=0:00:40.28    \nframe=   77 fps=1.9 q=42.0 size=       1KiB time=00:00:01.26 bitrate=   4.5kbits/s speed=0.0311x elapsed=0:00:40.79    \nframe=   80 fps=1.9 q=48.0 size=       1KiB time=00:00:01.31 bitrate=   4.3kbits/s speed=0.0319x elapsed=0:00:41.32    \nframe=   81 fps=1.9 q=27.0 size=       1KiB time=00:00:01.33 bitrate=   4.3kbits/s speed=0.0319x elapsed=0:00:41.84    \nframe=   82 fps=1.9 q=48.0 size=       1KiB time=00:00:01.35 bitrate=   4.2kbits/s speed=0.0319x elapsed=0:00:42.35    \nframe=   83 fps=1.9 q=44.0 size=       1KiB time=00:00:01.36 bitrate=   4.2kbits/s speed=0.0319x elapsed=0:00:42.87    \nframe=   84 fps=1.9 q=48.0 size=       1KiB time=00:00:01.38 bitrate=   4.1kbits/s speed=0.0318x elapsed=0:00:43.43    \nframe=   85 fps=1.9 q=43.0 size=       1KiB time=00:00:01.40 bitrate=   4.1kbits/s speed=0.0319x elapsed=0:00:43.94    \nframe=   86 fps=1.9 q=48.0 size=       1KiB time=00:00:01.41 bitrate=   4.0kbits/s speed=0.0319x elapsed=0:00:44.46    \nframe=   86 fps=1.9 q=48.0 size=       1KiB time=00:00:01.41 bitrate=   4.0kbits/s speed=0.0315x elapsed=0:00:45.04    \nframe=   87 fps=1.9 q=44.0 size=       1KiB time=00:00:01.43 bitrate=   4.0kbits/s speed=0.0315x elapsed=0:00:45.56    \nframe=   88 fps=1.9 q=48.0 size=       1KiB time=00:00:01.45 bitrate=   3.9kbits/s speed=0.0315x elapsed=0:00:46.07    \nframe=   90 fps=1.9 q=48.0 size=       1KiB time=00:00:01.48 bitrate=   3.8kbits/s speed=0.0318x elapsed=0:00:46.62    \nframe=   92 fps=2.0 q=48.0 size=       1KiB time=00:00:01.50 bitrate=   3.8kbits/s speed=0.0318x elapsed=0:00:47.13    \nframe=   93 fps=2.0 q=41.0 size=       1KiB time=00:00:01.53 bitrate=   3.7kbits/s speed=0.0322x elapsed=0:00:47.67    \nframe=   95 fps=2.0 q=43.0 size=       1KiB time=00:00:01.56 bitrate=   3.6kbits/s speed=0.0325x elapsed=0:00:48.19    \nframe=   97 fps=2.0 q=26.0 size=       1KiB time=00:00:01.60 bitrate=   3.6kbits/s speed=0.0328x elapsed=0:00:48.71    \nframe=   99 fps=2.0 q=43.0 size=       1KiB time=00:00:01.63 bitrate=   3.5kbits/s speed=0.0332x elapsed=0:00:49.26    \nframe=  100 fps=2.0 q=48.0 size=       1KiB time=00:00:01.65 bitrate=   3.5kbits/s speed=0.0331x elapsed=0:00:49.78    \nframe=  101 fps=2.0 q=41.0 size=       1KiB time=00:00:01.66 bitrate=   3.4kbits/s speed=0.0331x elapsed=0:00:50.29    \nframe=  102 fps=2.0 q=48.0 size=       1KiB time=00:00:01.68 bitrate=   3.4kbits/s speed=0.0331x elapsed=0:00:50.81    \nframe=  102 fps=2.0 q=48.0 size=       1KiB time=00:00:01.68 bitrate=   3.4kbits/s speed=0.0328x elapsed=0:00:51.32    \nframe=  103 fps=2.0 q=44.0 size=       1KiB time=00:00:01.70 bitrate=   3.4kbits/s speed=0.0328x elapsed=0:00:51.83    \nframe=  105 fps=2.0 q=40.0 size=       1KiB time=00:00:01.73 bitrate=   3.3kbits/s speed=0.0331x elapsed=0:00:52.35    \nframe=  107 fps=2.0 q=45.0 size=       1KiB time=00:00:01.76 bitrate=   3.2kbits/s speed=0.0334x elapsed=0:00:52.88    \nframe=  108 fps=2.0 q=47.0 size=       1KiB time=00:00:01.78 bitrate=   3.2kbits/s speed=0.0334x elapsed=0:00:53.39    \nframe=  110 fps=2.0 q=47.0 size=       1KiB time=00:00:01.81 bitrate=   3.1kbits/s speed=0.0337x elapsed=0:00:53.92    \nframe=  112 fps=2.1 q=47.0 size=       1KiB time=00:00:01.85 bitrate=   3.1kbits/s speed=0.034x elapsed=0:00:54.43    \nframe=  113 fps=2.1 q=26.0 size=       1KiB time=00:00:01.86 bitrate=   3.1kbits/s speed=0.034x elapsed=0:00:54.94    \nframe=  115 fps=2.1 q=46.0 size=       1KiB time=00:00:01.90 bitrate=   3.0kbits/s speed=0.0342x elapsed=0:00:55.49    \nframe=  116 fps=2.1 q=47.0 size=       1KiB time=00:00:01.91 bitrate=   3.0kbits/s speed=0.0342x elapsed=0:00:56.01    \nframe=  117 fps=2.1 q=44.0 size=       1KiB time=00:00:01.93 bitrate=   2.9kbits/s speed=0.0342x elapsed=0:00:56.54    \nframe=  118 fps=2.1 q=47.0 size=       1KiB time=00:00:01.95 bitrate=   2.9kbits/s speed=0.0342x elapsed=0:00:57.07    \nframe=  118 fps=2.0 q=47.0 size=       1KiB time=00:00:01.95 bitrate=   2.9kbits/s speed=0.0339x elapsed=0:00:57.59    \nframe=  119 fps=2.0 q=46.0 size=       1KiB time=00:00:01.96 bitrate=   2.9kbits/s speed=0.0338x elapsed=0:00:58.11    \nframe=  121 fps=2.1 q=40.0 size=       1KiB time=00:00:02.00 bitrate=   2.8kbits/s speed=0.0341x elapsed=0:00:58.63    \nframe=  123 fps=2.1 q=44.0 size=       1KiB time=00:00:02.03 bitrate=   2.8kbits/s speed=0.0344x elapsed=0:00:59.18    \nframe=  124 fps=2.1 q=47.0 size=       1KiB time=00:00:02.05 bitrate=   2.8kbits/s speed=0.0343x elapsed=0:00:59.70    \nframe=  125 fps=2.1 q=41.0 size=       1KiB time=00:00:02.06 bitrate=   2.8kbits/s speed=0.0343x elapsed=0:01:00.21    \nframe=  128 fps=2.1 q=46.0 size=       1KiB time=00:00:02.11 bitrate=   2.7kbits/s speed=0.0349x elapsed=0:01:00.72    \nframe=  129 fps=2.1 q=29.0 size=       1KiB time=00:00:02.13 bitrate=   2.7kbits/s speed=0.0348x elapsed=0:01:01.24    \nframe=  131 fps=2.1 q=46.0 size=       1KiB time=00:00:02.16 bitrate=   2.6kbits/s speed=0.0351x elapsed=0:01:01.79    \nframe=  132 fps=2.1 q=47.0 size=       1KiB time=00:00:02.18 bitrate=   2.6kbits/s speed=0.035x elapsed=0:01:02.31    \nframe=  134 fps=2.1 q=47.0 size=       1KiB time=00:00:02.21 bitrate=   2.6kbits/s speed=0.0353x elapsed=0:01:02.84    \nframe=  135 fps=2.1 q=46.0 size=       1KiB time=00:00:02.23 bitrate=   2.6kbits/s speed=0.0353x elapsed=0:01:03.35    \nframe=  135 fps=2.1 q=46.0 size=       1KiB time=00:00:02.23 bitrate=   2.6kbits/s speed=0.035x elapsed=0:01:03.88    \nframe=  139 fps=2.2 q=45.0 size=       1KiB time=00:00:02.30 bitrate=   2.5kbits/s speed=0.0357x elapsed=0:01:04.42    \nframe=  140 fps=2.2 q=46.0 size=       1KiB time=00:00:02.31 bitrate=   2.5kbits/s speed=0.0357x elapsed=0:01:04.95    \nframe=  143 fps=2.2 q=44.0 size=       1KiB time=00:00:02.36 bitrate=   2.4kbits/s speed=0.0361x elapsed=0:01:05.47    \nframe=  145 fps=2.2 q=30.0 size=       1KiB time=00:00:02.40 bitrate=   2.4kbits/s speed=0.0364x elapsed=0:01:06.00    \nframe=  147 fps=2.2 q=46.0 size=       1KiB time=00:00:02.43 bitrate=   2.3kbits/s speed=0.0366x elapsed=0:01:06.52    \nframe=  147 fps=2.2 q=46.0 size=       1KiB time=00:00:02.43 bitrate=   2.3kbits/s speed=0.0363x elapsed=0:01:07.05    \nframe=  149 fps=2.2 q=44.0 size=       1KiB time=00:00:02.46 bitrate=   2.3kbits/s speed=0.0365x elapsed=0:01:07.57    \nframe=  150 fps=2.2 q=46.0 size=       1KiB time=00:00:02.48 bitrate=   2.3kbits/s speed=0.0365x elapsed=0:01:08.10    \nframe=  151 fps=2.2 q=43.0 size=       1KiB time=00:00:02.50 bitrate=   2.3kbits/s speed=0.0364x elapsed=0:01:08.63    \nframe=  153 fps=2.2 q=40.0 size=       1KiB time=00:00:02.53 bitrate=   2.2kbits/s speed=0.0366x elapsed=0:01:09.15    \nframe=  156 fps=2.2 q=47.0 size=       1KiB time=00:00:02.58 bitrate=   2.2kbits/s speed=0.0371x elapsed=0:01:09.67    \nframe=  160 fps=2.3 q=48.0 size=       1KiB time=00:00:02.63 bitrate=   2.2kbits/s speed=0.0375x elapsed=0:01:10.19    \nframe=  161 fps=2.3 q=31.0 size=       1KiB time=00:00:02.66 bitrate=   2.1kbits/s speed=0.0377x elapsed=0:01:10.72    \nframe=  163 fps=2.3 q=49.0 size=       1KiB time=00:00:02.70 bitrate=   2.1kbits/s speed=0.0379x elapsed=0:01:11.28    \nframe=  165 fps=2.3 q=46.0 size=       1KiB time=00:00:02.73 bitrate=   2.1kbits/s speed=0.0381x elapsed=0:01:11.82    \nframe=  166 fps=2.3 q=51.0 size=       1KiB time=00:00:02.75 bitrate=   2.1kbits/s speed=0.038x elapsed=0:01:12.34    \nframe=  167 fps=2.3 q=49.0 size=       1KiB time=00:00:02.76 bitrate=   2.1kbits/s speed=0.038x elapsed=0:01:12.88    \nframe=  170 fps=2.3 q=51.0 size=       1KiB time=00:00:02.81 bitrate=   2.0kbits/s speed=0.0384x elapsed=0:01:13.38    \nframe=  172 fps=2.3 q=53.0 size=       1KiB time=00:00:02.85 bitrate=   2.0kbits/s speed=0.0386x elapsed=0:01:13.92    \nframe=  176 fps=2.4 q=53.0 size=       1KiB time=00:00:02.91 bitrate=   2.0kbits/s speed=0.0392x elapsed=0:01:14.47    \nframe=  179 fps=2.4 q=51.0 size=       1KiB time=00:00:02.96 bitrate=   1.9kbits/s speed=0.0396x elapsed=0:01:14.99    \nframe=  181 fps=2.4 q=49.0 size=       1KiB time=00:00:03.00 bitrate=   1.9kbits/s speed=0.0397x elapsed=0:01:15.54    \nframe=  183 fps=2.4 q=51.0 size=       1KiB time=00:00:03.03 bitrate=   1.9kbits/s speed=0.0399x elapsed=0:01:16.06    \nframe=  184 fps=2.4 q=53.0 size=       1KiB time=00:00:03.05 bitrate=   1.9kbits/s speed=0.0398x elapsed=0:01:16.66    \nframe=  187 fps=2.4 q=50.0 size=       1KiB time=00:00:03.10 bitrate=   1.8kbits/s speed=0.0402x elapsed=0:01:17.18    \nframe=  189 fps=2.4 q=46.0 size=       1KiB time=00:00:03.13 bitrate=   1.8kbits/s speed=0.0403x elapsed=0:01:17.71    \nframe=  192 fps=2.5 q=54.0 size=       1KiB time=00:00:03.18 bitrate=   1.8kbits/s speed=0.0407x elapsed=0:01:18.25    \nframe=  194 fps=2.5 q=54.0 size=       1KiB time=00:00:03.21 bitrate=   1.8kbits/s speed=0.0408x elapsed=0:01:18.77    \nframe=  196 fps=2.5 q=54.0 size=       1KiB time=00:00:03.25 bitrate=   1.8kbits/s speed=0.041x elapsed=0:01:19.32    \nframe=  198 fps=2.5 q=54.0 size=       1KiB time=00:00:03.26 bitrate=   1.7kbits/s speed=0.0409x elapsed=0:01:19.84    \nframe=  199 fps=2.5 q=52.0 size=       1KiB time=00:00:03.30 bitrate=   1.7kbits/s speed=0.0411x elapsed=0:01:20.38    \nframe=  201 fps=2.5 q=45.0 size=       1KiB time=00:00:03.31 bitrate=   1.7kbits/s speed=0.041x elapsed=0:01:20.89    \nframe=  205 fps=2.5 q=48.0 size=       1KiB time=00:00:03.40 bitrate=   1.7kbits/s speed=0.0418x elapsed=0:01:21.42    \nframe=  205 fps=2.5 q=48.0 size=       1KiB time=00:00:03.40 bitrate=   1.7kbits/s speed=0.0415x elapsed=0:01:21.96    \nframe=  209 fps=2.5 q=36.0 size=       1KiB time=00:00:03.46 bitrate=   1.6kbits/s speed=0.042x elapsed=0:01:22.50    \nframe=  209 fps=2.5 q=36.0 size=       1KiB time=00:00:03.46 bitrate=   1.6kbits/s speed=0.0417x elapsed=0:01:23.03    \nframe=  213 fps=2.5 q=50.0 size=       1KiB time=00:00:03.53 bitrate=   1.6kbits/s speed=0.0423x elapsed=0:01:23.62    \nframe=  215 fps=2.6 q=51.0 size=       1KiB time=00:00:03.56 bitrate=   1.6kbits/s speed=0.0424x elapsed=0:01:24.19    \nframe=  217 fps=2.6 q=47.0 size=       1KiB time=00:00:03.60 bitrate=   1.6kbits/s speed=0.0425x elapsed=0:01:24.72    \nframe=  217 fps=2.5 q=47.0 size=       1KiB time=00:00:03.60 bitrate=   1.6kbits/s speed=0.0422x elapsed=0:01:25.22    \nframe=  221 fps=2.6 q=46.0 size=       1KiB time=00:00:03.66 bitrate=   1.6kbits/s speed=0.0428x elapsed=0:01:25.75    \nframe=  221 fps=2.6 q=46.0 size=       1KiB time=00:00:03.66 bitrate=   1.6kbits/s speed=0.0425x elapsed=0:01:26.35    \nframe=  225 fps=2.6 q=39.0 size=       1KiB time=00:00:03.73 bitrate=   1.5kbits/s speed=0.043x elapsed=0:01:26.87    \nframe=  229 fps=2.6 q=48.0 size=       1KiB time=00:00:03.80 bitrate=   1.5kbits/s speed=0.0435x elapsed=0:01:27.38    \nframe=  229 fps=2.6 q=48.0 size=       1KiB time=00:00:03.80 bitrate=   1.5kbits/s speed=0.0432x elapsed=0:01:27.92    \nframe=  233 fps=2.6 q=45.0 size=       1KiB time=00:00:03.86 bitrate=   1.5kbits/s speed=0.0437x elapsed=0:01:28.46    \nframe=  233 fps=2.6 q=45.0 size=       1KiB time=00:00:03.86 bitrate=   1.5kbits/s speed=0.0435x elapsed=0:01:28.97    \nframe=  233 fps=2.6 q=45.0 size=       1KiB time=00:00:03.86 bitrate=   1.5kbits/s speed=0.0432x elapsed=0:01:29.48    \nframe=  237 fps=2.6 q=44.0 size=       1KiB time=00:00:03.93 bitrate=   1.4kbits/s speed=0.0437x elapsed=0:01:29.99    \nframe=  239 fps=2.6 q=47.0 size=       1KiB time=00:00:03.96 bitrate=   1.4kbits/s speed=0.0438x elapsed=0:01:30.51    \nframe=  241 fps=2.6 q=38.0 size=       1KiB time=00:00:04.00 bitrate=   1.4kbits/s speed=0.0439x elapsed=0:01:31.09    \nframe=  245 fps=2.7 q=44.0 size=       1KiB time=00:00:04.06 bitrate=   1.4kbits/s speed=0.0444x elapsed=0:01:31.60    \nframe=  247 fps=2.7 q=47.0 size=       1KiB time=00:00:04.10 bitrate=   1.4kbits/s speed=0.0445x elapsed=0:01:32.12    \nframe=  249 fps=2.7 q=43.0 size=       1KiB time=00:00:04.13 bitrate=   1.4kbits/s speed=0.0446x elapsed=0:01:32.68    \nframe=  249 fps=2.7 q=43.0 size=       1KiB time=00:00:04.13 bitrate=   1.4kbits/s speed=0.0443x elapsed=0:01:33.20    \nframe=  251 fps=2.7 q=47.0 size=       1KiB time=00:00:04.16 bitrate=   1.4kbits/s speed=0.0445x elapsed=0:01:33.72    \nframe=  253 fps=2.7 q=44.0 size=       1KiB time=00:00:04.20 bitrate=   1.4kbits/s speed=0.0446x elapsed=0:01:34.25    \nframe=  255 fps=2.7 q=47.0 size=       1KiB time=00:00:04.23 bitrate=   1.3kbits/s speed=0.0447x elapsed=0:01:34.77    \nframe=  257 fps=2.7 q=34.0 size=       1KiB time=00:00:04.26 bitrate=   1.3kbits/s speed=0.0448x elapsed=0:01:35.32    \nframe=  261 fps=2.7 q=44.0 size=       1KiB time=00:00:04.33 bitrate=   1.3kbits/s speed=0.0452x elapsed=0:01:35.85    \nframe=  263 fps=2.7 q=46.0 size=       1KiB time=00:00:04.36 bitrate=   1.3kbits/s speed=0.0453x elapsed=0:01:36.37    \nframe=  265 fps=2.7 q=43.0 size=       1KiB time=00:00:04.40 bitrate=   1.3kbits/s speed=0.0454x elapsed=0:01:36.90    \nframe=  265 fps=2.7 q=43.0 size=       1KiB time=00:00:04.40 bitrate=   1.3kbits/s speed=0.0451x elapsed=0:01:37.46    \nframe=  269 fps=2.7 q=46.0 size=       1KiB time=00:00:04.46 bitrate=   1.3kbits/s speed=0.0456x elapsed=0:01:37.98    \nframe=  271 fps=2.8 q=50.0 size=       1KiB time=00:00:04.50 bitrate=   1.3kbits/s speed=0.0457x elapsed=0:01:38.50    \nframe=  275 fps=2.8 q=50.0 size=       1KiB time=00:00:04.56 bitrate=   1.2kbits/s speed=0.0461x elapsed=0:01:39.03    \nframe=  279 fps=2.8 q=50.0 size=       1KiB time=00:00:04.63 bitrate=   1.2kbits/s speed=0.0465x elapsed=0:01:39.55    \nframe=  281 fps=2.8 q=46.0 size=       1KiB time=00:00:04.66 bitrate=   1.2kbits/s speed=0.0466x elapsed=0:01:40.08    \nframe=  283 fps=2.8 q=50.0 size=       1KiB time=00:00:04.70 bitrate=   1.2kbits/s speed=0.0467x elapsed=0:01:40.67    \nframe=  291 fps=2.9 q=50.0 size=       1KiB time=00:00:04.83 bitrate=   1.2kbits/s speed=0.0478x elapsed=0:01:41.19    \n[out#0/matroska @ 00000122fff09780] video:1029KiB audio:0KiB subtitle:0KiB other streams:0KiB global headers:0KiB muxing overhead: 0.201672%\nframe=  300 fps=2.9 q=50.0 Lsize=    1031KiB time=00:00:04.98 bitrate=1694.2kbits/s speed=0.049x elapsed=0:01:41.72    \n",
  "seconds": 102.49594688415527,
  "probe_out": {}
}